<svg width="40" height="40" viewBox="0 0 40 40" fill="none" xmlns="http://www.w3.org/2000/svg">
<path fill-rule="evenodd" clip-rule="evenodd" d="M37.5 35C37.5 36.38 36.38 37.5 35 37.5H28.54L19.33 28.1688L30 17.4988L37.5 24.9988V35ZM5 37.5C3.62 37.5 2.5 36.38 2.5 35V33.8263L12.4313 24.9312L25.0013 37.5H5ZM10 5C12.7613 5 15 7.23875 15 10C15 12.7613 12.7613 15 10 15C7.23875 15 5 12.7613 5 10C5 7.23875 7.23875 5 10 5ZM35 0H5C2.23875 0 0 2.23875 0 5V35C0 37.7612 2.23875 40 5 40H35C37.7612 40 40 37.7612 40 35V5C40 2.23875 37.7612 0 35 0ZM10 12.5C11.38 12.5 12.5 11.38 12.5 10C12.5 8.62 11.38 7.5 10 7.5C8.62 7.5 7.5 8.62 7.5 10C7.5 11.38 8.62 12.5 10 12.5Z" fill="#DFBA00"/>
</svg>
